<svg xmlns="http://www.w3.org/2000/svg" viewBox="0 0 2088 1668" width="2088" height="1668"><path fill="#000" fill-rule="evenodd" d="M1527.5,1403.3C1526.4,1403.2 1516.3,1402.6 1505.0,1402.0C1461.2,1399.8 1447.0,1397.2 1422.0,1386.8C1408.9,1381.4 1396.1,1369.6 1393.4,1360.4C1391.2,1352.8 1391.0,1340.5 1393.0,1336.6C1396.6,1329.5 1395.4,1329.7 1439.4,1329.9C1461.2,1330.0 1482.3,1330.5 1486.3,1331.0C1490.2,1331.5 1495.9,1332.0 1498.8,1332.0C1505.8,1332.0 1510.1,1334.4 1517.8,1342.4C1521.2,1346.0 1525.0,1349.2 1526.3,1349.4C1543.8,1352.8 1549.3,1353.2 1569.5,1352.8C1593.4,1352.3 1599.1,1351.1 1604.7,1345.5C1611.5,1338.7 1606.6,1325.8 1595.2,1320.8C1586.2,1316.8 1532.6,1315.6 1514.0,1318.9C1497.4,1321.9 1470.4,1320.6 1463.0,1316.4C1461.6,1315.6 1457.2,1312.9 1453.1,1310.4C1449.0,1307.9 1443.4,1305.4 1440.6,1304.7C1426.6,1301.5 1415.6,1289.7 1409.9,1271.7C1404.8,1255.6 1406.6,1256.4 1377.3,1256.8C1353.0,1257.2 1352.4,1257.2 1348.2,1259.7C1335.5,1267.0 1332.7,1272.2 1331.0,1292.0C1329.8,1306.2 1328.5,1311.9 1325.0,1319.0C1320.2,1328.5 1319.0,1334.6 1317.9,1352.9C1316.8,1371.4 1315.4,1376.5 1308.7,1384.6C1307.4,1386.2 1305.4,1389.1 1304.2,1391.1C1303.0,1393.0 1300.9,1395.2 1299.4,1395.9C1295.7,1397.5 1204.7,1398.7 1200.7,1397.1C1196.1,1395.3 1194.7,1390.4 1194.6,1375.5C1194.5,1363.2 1194.6,1362.2 1197.4,1356.5C1201.8,1347.1 1204.0,1337.7 1205.1,1322.6C1206.3,1305.4 1207.2,1301.4 1211.7,1292.1C1216.1,1283.2 1217.3,1272.1 1214.7,1265.7C1212.5,1260.6 1208.9,1259.3 1194.3,1258.0C1175.6,1256.3 1174.0,1254.4 1174.0,1233.0C1174.0,1218.3 1173.4,1215.4 1169.6,1212.8C1166.5,1210.7 1157.6,1215.0 1142.5,1225.9C1140.3,1227.5 1132.4,1232.7 1125.0,1237.5C1104.1,1251.1 1091.9,1260.2 1082.1,1269.4C1074.2,1277.0 1073.0,1279.4 1073.0,1287.2C1073.0,1296.7 1074.4,1300.3 1080.9,1307.3C1084.1,1310.7 1089.3,1317.5 1092.4,1322.3C1102.4,1337.8 1117.4,1357.4 1127.1,1367.6C1137.9,1378.9 1141.1,1392.8 1133.5,1395.4C1131.7,1396.0 1108.3,1396.5 1073.2,1396.7L1015.8,1397.1L1009.4,1390.8C1005.9,1387.3 1000.2,1381.0 996.9,1376.7C993.5,1372.4 987.8,1365.6 984.1,1361.5C971.0,1346.9 967.0,1341.8 964.4,1336.4C961.3,1329.8 959.0,1328.5 948.7,1327.5C939.7,1326.7 937.4,1327.8 936.6,1333.4C936.0,1336.8 933.5,1352.8 931.9,1363.0C930.3,1372.7 929.2,1375.7 923.9,1384.6C916.4,1397.2 920.5,1396.3 863.4,1396.8C801.5,1397.3 806.4,1399.5 807.3,1372.6C807.9,1351.9 809.9,1340.1 814.6,1329.8C817.5,1323.4 818.2,1320.2 819.0,1311.3C820.7,1292.5 821.9,1285.1 824.0,1281.1C828.8,1271.5 830.0,1266.7 831.5,1250.9C833.1,1234.6 834.7,1227.6 838.1,1222.8C841.8,1217.6 842.9,1213.1 843.9,1199.1C844.7,1187.6 845.4,1183.8 847.5,1178.7C849.0,1175.3 850.7,1169.8 851.4,1166.5C852.1,1163.2 853.5,1158.7 854.4,1156.5C855.5,1154.0 856.5,1147.9 857.1,1140.5C858.5,1123.3 861.7,1117.9 872.6,1115.2C879.4,1113.4 962.7,1114.5 969.2,1116.4C974.4,1117.9 978.1,1120.7 979.3,1124.2C980.4,1127.3 977.9,1140.5 975.0,1146.5C971.1,1154.6 969.3,1163.7 968.2,1181.0C967.5,1191.7 966.6,1196.9 965.1,1200.8C963.9,1203.6 962.1,1208.3 961.0,1211.1C958.4,1217.4 956.6,1238.9 958.1,1244.3C959.2,1248.5 962.3,1251.0 966.3,1251.0C970.8,1251.0 983.0,1244.5 990.2,1238.3C1009.5,1221.5 1045.5,1198.3 1056.5,1195.5C1058.2,1195.1 1081.4,1194.8 1108.1,1194.8C1156.6,1194.9 1156.6,1194.9 1163.1,1197.3C1173.9,1201.3 1179.3,1201.6 1184.8,1198.3C1189.2,1195.8 1190.5,1195.5 1205.0,1194.9C1223.3,1194.1 1220.1,1194.8 1225.5,1189.9C1229.9,1185.9 1231.2,1183.1 1232.5,1175.6C1232.8,1173.5 1236.5,1165.5 1240.7,1157.9C1249.0,1142.6 1252.2,1139.3 1267.5,1130.3C1276.6,1124.9 1280.6,1123.4 1291.5,1121.5C1296.5,1120.7 1304.5,1119.0 1309.5,1117.8C1317.9,1115.8 1321.0,1115.6 1357.5,1115.6C1406.0,1115.7 1412.2,1116.7 1416.5,1125.7C1419.3,1131.5 1417.8,1150.7 1413.8,1159.9C1407.7,1174.3 1407.7,1174.3 1387.0,1174.6C1378.5,1174.7 1369.6,1175.3 1367.3,1175.9C1357.3,1178.6 1354.8,1190.3 1363.4,1194.4C1365.2,1195.2 1371.3,1196.1 1377.5,1196.5C1391.5,1197.3 1397.7,1199.0 1401.5,1203.0C1404.5,1206.1 1404.5,1206.1 1405.0,1222.8C1405.7,1245.2 1408.2,1250.0 1412.5,1236.9C1415.1,1228.7 1415.4,1228.3 1419.8,1226.1C1421.8,1225.1 1425.6,1222.4 1428.1,1220.1C1434.4,1214.6 1445.3,1208.6 1453.6,1206.0C1457.4,1204.8 1463.2,1203.0 1466.5,1201.8C1469.8,1200.7 1475.0,1199.4 1478.0,1199.0C1481.0,1198.6 1487.5,1197.6 1492.5,1196.7C1514.7,1192.9 1614.2,1191.1 1652.5,1193.8C1693.0,1196.8 1690.1,1196.3 1708.5,1202.5C1729.1,1209.5 1737.0,1213.3 1744.1,1219.8C1751.0,1226.0 1752.2,1226.6 1759.7,1227.5C1766.9,1228.3 1766.9,1228.3 1770.9,1214.5C1775.2,1199.8 1780.9,1196.0 1798.3,1196.0C1811.1,1196.0 1812.6,1195.4 1819.6,1187.3C1827.4,1178.4 1828.1,1176.4 1829.0,1161.7C1830.0,1145.8 1830.7,1144.5 1840.6,1141.1C1847.4,1138.8 1848.1,1138.8 1883.0,1138.9C1902.5,1138.9 1920.8,1139.2 1923.5,1139.5C1945.9,1141.6 1949.3,1142.3 1951.8,1144.7C1955.0,1147.9 1954.4,1154.4 1950.1,1162.7C1944.7,1173.1 1943.6,1184.7 1947.7,1189.2C1950.9,1192.9 1962.9,1198.0 1968.3,1198.0C1974.3,1198.0 1979.0,1199.9 1981.9,1203.6C1985.0,1207.4 1984.5,1225.6 1981.1,1236.1C1978.4,1244.6 1967.5,1255.9 1961.8,1256.1C1960.0,1256.1 1957.8,1256.3 1957.0,1256.4C1956.2,1256.6 1952.0,1257.1 1947.8,1257.4C1935.2,1258.6 1931.5,1262.8 1927.5,1280.3C1924.5,1293.8 1923.2,1298.7 1921.1,1304.2C1918.5,1311.3 1918.2,1324.5 1920.5,1329.0C1922.4,1332.7 1925.3,1334.2 1936.5,1337.0C1948.7,1340.0 1955.8,1342.8 1956.9,1344.9C1958.1,1347.1 1957.0,1351.9 1953.5,1359.3C1952.1,1362.4 1950.2,1368.9 1949.5,1373.6C1947.6,1385.3 1944.0,1391.7 1937.6,1394.9C1932.8,1397.3 1932.8,1397.3 1881.2,1397.7C1829.5,1398.2 1829.5,1398.2 1820.6,1395.6C1815.4,1394.1 1810.3,1391.8 1808.1,1390.1C1806.0,1388.5 1803.2,1386.8 1801.8,1386.5C1797.7,1385.5 1795.4,1382.2 1792.4,1373.5C1788.6,1362.4 1788.3,1353.0 1790.9,1334.8C1792.1,1326.8 1793.4,1315.9 1793.9,1310.8C1794.5,1303.1 1795.1,1300.7 1797.4,1297.3C1802.1,1290.2 1803.7,1270.3 1800.0,1264.3C1798.0,1261.0 1796.8,1260.5 1784.6,1258.2C1781.3,1257.5 1776.6,1255.7 1773.9,1253.9C1768.1,1250.2 1768.5,1250.3 1750.2,1252.4C1742.4,1253.3 1735.5,1253.8 1734.9,1253.4C1733.4,1252.5 1693.0,1255.0 1689.8,1256.2C1686.7,1257.4 1686.6,1257.6 1688.0,1259.3C1688.6,1260.0 1690.4,1262.3 1691.9,1264.5C1694.3,1267.8 1697.9,1270.1 1712.7,1277.7C1727.1,1285.3 1731.7,1288.2 1737.1,1293.3C1745.7,1301.4 1746.3,1303.8 1745.5,1324.8C1744.7,1343.8 1743.7,1347.3 1735.8,1357.1C1732.6,1361.1 1730.0,1364.8 1730.0,1365.2C1730.0,1366.2 1714.1,1376.4 1706.8,1380.1C1699.9,1383.6 1684.4,1389.1 1675.5,1391.3C1672.2,1392.1 1666.1,1393.7 1661.9,1394.8C1650.4,1397.9 1635.0,1399.8 1608.5,1401.5C1588.0,1402.7 1533.7,1404.0 1527.5,1403.3ZM234.4,1396.0C228.4,1395.1 221.2,1393.6 218.4,1392.7C215.7,1391.9 211.0,1390.6 208.0,1389.9C200.2,1388.2 188.1,1383.6 180.0,1379.4C166.5,1372.3 161.5,1373.2 151.9,1384.5C146.1,1391.3 143.8,1393.2 140.6,1394.1C136.0,1395.4 51.2,1394.9 49.1,1393.6C43.5,1390.1 43.8,1367.3 49.5,1356.1C53.3,1348.4 54.8,1340.7 56.4,1319.9C57.6,1302.8 58.2,1299.4 60.5,1293.9C66.3,1280.1 67.1,1276.1 67.9,1259.9C68.4,1251.3 69.1,1243.7 69.5,1243.0C69.9,1242.3 70.6,1237.0 71.1,1231.1C71.7,1222.2 72.3,1219.6 74.8,1214.8C76.5,1211.6 78.3,1205.9 79.0,1201.8C79.6,1197.8 80.8,1191.2 81.6,1187.1C82.4,1183.1 83.0,1176.9 83.0,1173.4C83.0,1169.4 83.9,1164.2 85.5,1159.3C86.9,1155.0 88.7,1147.2 89.6,1142.0C91.6,1129.5 93.9,1125.5 101.8,1120.8C108.9,1116.5 108.3,1116.5 132.5,1117.7C142.4,1118.1 161.7,1118.2 175.4,1117.8C203.4,1117.0 204.5,1117.2 207.5,1123.5C209.6,1128.1 208.8,1145.1 205.9,1154.5C201.3,1170.0 198.5,1197.9 200.9,1205.3C203.5,1213.1 210.3,1215.0 220.2,1210.6C223.2,1209.2 229.7,1207.0 234.6,1205.5C239.5,1204.0 249.6,1200.7 257.0,1198.1L270.5,1193.5L319.0,1193.6C373.2,1193.6 376.5,1193.9 390.0,1199.9C394.7,1202.0 401.5,1204.7 405.2,1205.9C413.4,1208.6 422.6,1214.4 426.2,1219.2C427.8,1221.2 431.5,1225.4 434.5,1228.6C444.5,1239.1 445.8,1245.2 445.9,1280.0C446.0,1299.0 444.5,1307.8 440.2,1314.8C438.6,1317.4 435.1,1324.2 432.3,1330.0C425.4,1344.3 409.4,1362.9 398.6,1369.2C394.7,1371.5 390.1,1374.4 388.4,1375.6C386.7,1376.9 382.2,1379.4 378.4,1381.1C374.6,1382.8 368.6,1385.5 365.1,1387.1C361.3,1388.9 356.2,1390.3 352.6,1390.6C349.3,1390.9 341.3,1392.2 335.0,1393.5C312.5,1398.1 256.2,1399.5 234.4,1396.0ZM476.4,1396.0C453.1,1395.3 452.5,1394.7 453.2,1372.1C453.6,1359.5 453.6,1359.5 458.9,1348.2C464.3,1336.8 464.3,1336.8 465.1,1318.7C465.9,1300.6 465.9,1300.6 469.9,1292.5C474.8,1282.4 475.6,1279.2 476.9,1265.5C477.9,1254.7 479.7,1247.2 483.8,1235.9C485.0,1232.9 486.4,1226.3 487.1,1221.4C488.9,1207.8 490.7,1202.1 494.5,1198.3C498.2,1194.6 495.9,1194.7 564.9,1194.9C593.1,1195.0 596.7,1195.2 600.4,1196.9C604.8,1198.9 609.2,1202.8 611.7,1207.1C616.0,1214.3 627.0,1214.9 638.9,1208.7C647.9,1204.0 667.6,1196.3 675.2,1194.5C685.8,1192.0 731.9,1191.3 745.0,1193.4C758.8,1195.7 761.0,1196.4 770.5,1201.8C780.4,1207.5 781.7,1208.6 790.9,1218.5C802.9,1231.4 803.2,1232.6 802.8,1259.3C802.3,1288.0 799.6,1296.2 789.7,1298.5C784.0,1299.9 695.6,1300.0 692.9,1298.6C691.3,1297.9 690.0,1295.9 689.2,1293.0C681.8,1268.3 673.2,1254.4 664.0,1252.0C662.1,1251.5 653.3,1251.3 644.4,1251.4C628.9,1251.7 628.2,1251.8 622.9,1254.5C608.3,1262.3 591.6,1285.7 589.8,1301.0C587.4,1321.3 585.8,1332.3 584.4,1337.1C583.6,1340.1 582.5,1345.7 582.0,1349.5C581.6,1353.3 580.6,1357.8 580.0,1359.5C579.4,1361.1 578.2,1365.6 577.4,1369.5C574.3,1384.1 567.7,1394.3 560.7,1395.4C555.8,1396.2 495.8,1396.6 476.4,1396.0ZM265.5,1345.5C268.8,1344.6 278.3,1340.6 286.6,1336.4C301.0,1329.3 302.2,1328.5 310.2,1320.2C321.4,1308.6 322.5,1305.6 322.5,1286.5C322.5,1267.4 321.8,1265.4 312.7,1258.7C308.7,1255.7 304.9,1252.6 304.1,1251.7C300.1,1246.7 272.5,1243.2 247.2,1244.4C232.1,1245.1 229.4,1245.9 212.5,1253.9C197.4,1261.1 191.7,1266.8 180.1,1286.6C176.2,1293.3 176.0,1293.9 176.0,1302.1C176.1,1313.2 177.9,1317.3 185.7,1323.3C189.0,1325.8 192.4,1329.0 193.3,1330.4C194.2,1331.7 198.0,1334.3 201.7,1336.0C205.4,1337.8 210.0,1340.4 211.9,1341.8C217.9,1346.3 221.2,1346.9 241.0,1347.0C254.6,1347.0 261.2,1346.6 265.5,1345.5ZM1618.6,1262.6C1631.5,1258.7 1634.4,1255.3 1627.5,1252.2C1625.8,1251.4 1622.0,1249.3 1619.0,1247.5C1604.4,1238.8 1599.3,1237.5 1580.0,1237.6C1557.9,1237.7 1553.9,1238.3 1549.5,1242.1C1544.7,1246.3 1543.5,1250.6 1545.5,1255.8C1548.7,1263.8 1551.4,1264.3 1587.5,1264.8C1609.4,1265.0 1610.9,1264.9 1618.6,1262.6ZM652.0,1060.7C651.7,1060.5 628.2,1059.9 599.6,1059.6C537.3,1058.8 541.0,1059.6 541.0,1046.5C541.0,1039.2 542.0,1036.0 545.6,1031.7C546.9,1030.1 550.3,1024.0 553.0,1018.2C555.8,1012.4 559.5,1005.9 561.4,1003.6C565.1,999.0 577.1,978.3 580.6,970.3C581.9,967.4 585.4,961.1 588.3,956.3C591.3,951.5 595.2,944.8 597.0,941.5C598.8,938.2 601.7,933.6 603.4,931.3C605.1,929.0 609.6,922.1 613.5,916.0C617.4,909.9 622.5,902.1 625.0,898.8C627.5,895.4 631.5,889.9 633.9,886.6C636.3,883.2 639.3,879.4 640.6,878.0C641.9,876.6 644.4,872.5 646.1,869.0C647.8,865.5 651.2,860.3 653.7,857.6C656.2,854.8 659.5,850.1 661.0,847.0C662.6,844.0 665.9,839.5 668.4,837.1C671.4,834.2 673.5,830.9 674.6,827.7C675.5,825.0 678.6,819.3 681.4,815.1C686.5,807.7 691.7,798.3 702.5,777.4C705.4,771.8 709.1,765.3 710.7,762.9C712.4,760.5 715.2,755.6 717.0,752.0C718.8,748.4 721.5,743.7 723.0,741.5C724.5,739.3 727.0,735.0 728.5,732.0C730.0,729.0 733.0,724.1 735.2,721.2C737.4,718.3 740.5,713.1 742.2,709.7C743.9,706.4 747.4,701.3 750.1,698.5C752.7,695.7 755.8,691.2 757.0,688.5C758.1,685.8 760.9,681.7 763.0,679.4C765.2,677.0 768.2,672.3 769.8,668.8C771.4,665.3 774.7,660.0 777.2,657.0C779.7,653.9 784.0,647.4 786.8,642.5C796.9,624.2 802.1,615.6 805.3,611.6C807.1,609.3 809.7,605.7 811.0,603.5C812.3,601.3 815.0,597.5 817.0,595.0C819.0,592.5 823.0,586.5 825.9,581.7C832.3,570.6 837.2,564.0 847.2,552.3C855.0,543.4 855.4,543.0 867.8,537.0C890.5,525.9 890.0,525.9 977.5,526.5C1015.5,526.8 1056.8,527.5 1069.5,528.1C1082.2,528.7 1095.5,529.3 1099.2,529.3C1111.8,529.6 1114.8,537.6 1107.7,551.8C1097.7,571.8 1088.7,587.6 1077.2,605.1C1074.4,609.5 1069.3,618.2 1066.1,624.3C1052.5,650.3 1043.5,666.1 1031.6,685.0C1027.6,691.3 1023.0,698.6 1021.4,701.2C1019.8,703.8 1014.6,711.3 1009.9,717.7C1005.2,724.2 1000.5,731.1 999.5,733.0C998.5,734.9 995.9,739.2 993.5,742.5C991.2,745.8 988.0,750.8 986.5,753.5C984.9,756.2 979.9,764.2 975.3,771.1C970.8,778.0 964.3,788.8 961.0,795.1C957.7,801.3 953.6,808.1 952.0,810.2C950.3,812.3 947.1,817.4 944.8,821.6C942.5,825.8 939.3,831.4 937.6,834.1C933.6,840.3 921.1,861.2 915.3,871.5C903.1,892.9 898.9,900.2 893.9,908.2C885.7,921.4 877.3,936.1 875.7,940.0C874.9,941.9 872.1,946.4 869.5,949.9C866.9,953.5 863.6,958.9 862.3,961.9C860.9,965.0 857.4,970.9 854.3,975.0C846.7,985.4 839.2,997.4 835.7,1004.5C830.0,1016.3 814.0,1040.9 809.2,1045.1C795.6,1057.2 792.6,1058.0 756.0,1059.1C712.8,1060.4 652.6,1061.3 652.0,1060.7ZM953.6,1060.3C953.5,1060.1 942.8,1060.0 929.9,1059.9C897.5,1059.8 897.0,1059.6 897.0,1047.5C897.0,1040.0 898.4,1035.8 902.8,1030.9C905.7,1027.5 912.8,1015.8 920.9,1000.5C934.0,976.2 949.0,950.8 959.8,935.0C961.1,933.1 963.5,928.7 965.0,925.2C966.6,921.8 969.4,917.1 971.3,914.7C973.2,912.4 976.5,907.6 978.6,904.0C980.6,900.4 983.8,895.7 985.5,893.5C987.3,891.3 990.3,887.0 992.3,884.0C996.2,878.1 1005.7,869.5 1010.5,867.5C1012.8,866.6 1054.7,866.3 1192.0,866.2C1290.2,866.1 1377.0,865.8 1385.0,865.5C1412.8,864.5 1427.0,863.0 1433.0,860.5C1436.0,859.2 1441.9,857.9 1446.0,857.5C1456.9,856.4 1474.9,851.6 1483.0,847.5C1486.8,845.6 1492.4,843.1 1495.3,842.0C1502.3,839.4 1517.2,824.6 1518.9,818.5C1522.4,806.3 1521.2,787.6 1516.5,781.4C1512.5,776.1 1496.0,768.4 1477.0,762.9C1460.6,758.1 1427.8,757.4 1183.0,756.4C1103.5,756.1 1091.7,755.9 1085.9,754.5C1073.0,751.3 1070.8,744.8 1079.3,735.3C1081.2,733.2 1084.2,728.6 1086.0,725.0C1087.8,721.4 1090.9,716.2 1093.0,713.5C1095.1,710.8 1098.2,706.0 1100.0,703.0C1101.8,700.0 1104.9,695.6 1107.1,693.3C1109.2,691.1 1112.1,686.8 1113.5,683.9C1115.0,681.0 1118.4,676.4 1121.0,673.6C1123.6,670.8 1127.0,666.0 1128.5,663.0C1130.0,660.0 1133.0,655.6 1135.1,653.2C1137.4,650.6 1139.7,646.3 1141.0,642.5C1142.4,638.3 1144.6,634.4 1147.4,631.3C1149.8,628.6 1153.2,623.8 1155.0,620.5C1156.9,617.2 1160.5,612.2 1163.1,609.4C1165.7,606.6 1168.9,602.1 1170.3,599.4C1173.2,593.8 1187.2,580.7 1194.1,577.3C1206.9,570.9 1199.3,571.3 1366.0,570.0C1449.3,569.4 1522.0,568.5 1527.5,567.9C1554.8,565.3 1583.1,557.3 1594.9,549.1C1596.3,548.1 1599.3,546.7 1601.5,546.0C1603.7,545.3 1607.7,542.6 1610.5,540.0C1613.2,537.5 1617.0,534.3 1618.8,533.1C1625.1,528.7 1628.6,517.6 1627.7,504.8C1626.9,493.5 1624.2,488.4 1616.8,484.5C1613.6,482.8 1609.8,480.2 1608.3,478.8C1604.6,475.3 1600.8,473.6 1593.0,471.6C1583.8,469.4 1520.8,468.1 1413.5,468.0C1366.8,468.0 1313.2,467.7 1294.5,467.5C1275.8,467.3 1117.6,466.8 943.0,466.5C768.4,466.2 578.2,465.7 520.5,465.5C462.8,465.2 372.8,465.0 320.7,464.9C225.9,464.7 225.9,464.7 224.0,462.2C220.6,458.0 223.2,444.9 229.7,433.6C232.2,429.1 237.3,419.9 241.0,413.0C244.6,406.1 250.6,395.8 254.2,390.0C257.8,384.2 261.8,377.5 263.0,375.0C264.3,372.5 267.2,368.0 269.5,365.0C271.9,362.0 275.6,355.9 277.8,351.4C280.0,347.0 282.6,342.8 283.5,342.0C284.4,341.3 286.3,338.6 287.7,336.1C289.1,333.6 293.1,327.2 296.5,322.0C299.9,316.8 303.8,309.8 305.0,306.6C309.7,294.7 327.6,277.4 340.7,272.0C345.0,270.3 351.2,267.6 354.5,266.0C366.4,260.5 359.6,260.6 519.0,261.4C797.8,262.7 866.6,263.0 926.0,263.5C1052.6,264.7 1148.5,265.1 1510.0,266.5C1547.1,266.6 1616.9,266.8 1665.0,266.8C1721.1,266.9 1755.7,267.3 1761.5,268.0C1774.1,269.6 1788.2,271.7 1797.0,273.5C1801.1,274.4 1810.1,275.5 1817.0,276.0C1870.1,280.2 1869.2,280.0 1882.2,286.1C1890.1,289.7 1894.9,291.3 1900.3,292.0C1912.7,293.5 1917.1,294.9 1927.8,300.5C1933.5,303.5 1940.7,306.6 1943.8,307.5C1950.6,309.5 1956.5,312.4 1960.4,315.7C1962.0,317.0 1965.4,319.2 1968.0,320.5C1971.0,322.0 1974.1,324.8 1976.4,327.8C1978.3,330.5 1981.8,334.0 1984.1,335.5C1986.3,337.1 1989.5,340.3 1991.2,342.7C1992.8,345.1 1996.0,348.2 1998.3,349.7C2003.4,352.9 2003.4,352.9 2006.0,360.7C2007.3,364.4 2009.7,368.7 2012.1,371.3C2018.9,379.1 2019.4,381.2 2019.8,402.5C2020.1,423.4 2020.5,422.0 2012.8,434.2C2011.3,436.6 2008.9,443.0 2007.4,448.5C2006.0,454.0 2004.0,460.1 2003.0,462.0C1997.4,473.2 1990.2,485.2 1986.3,490.0C1983.8,493.0 1980.7,497.7 1979.4,500.3C1974.3,510.3 1942.3,540.7 1923.2,553.7C1914.4,559.7 1908.5,564.0 1900.1,570.4C1891.0,577.4 1865.7,590.9 1847.5,598.4C1841.5,600.9 1832.7,605.0 1828.0,607.4C1823.3,609.8 1816.5,612.7 1812.9,613.9C1809.3,615.1 1804.3,617.3 1801.8,618.9C1796.6,622.2 1793.2,623.4 1783.0,625.5C1778.3,626.5 1771.7,629.0 1764.9,632.5C1757.7,636.2 1751.4,638.5 1745.4,639.9C1740.5,640.9 1730.9,644.1 1724.0,646.9C1717.1,649.7 1707.1,653.0 1701.8,654.2C1690.4,656.8 1686.7,659.1 1686.7,663.8C1686.7,669.9 1688.0,670.5 1717.3,677.4C1721.1,678.3 1726.7,680.5 1729.8,682.4C1735.6,685.9 1737.1,686.3 1750.0,688.0C1757.9,689.0 1767.7,692.5 1773.8,696.5C1775.9,697.8 1782.8,700.9 1789.2,703.4C1799.6,707.5 1806.6,710.9 1821.0,718.7C1823.5,720.1 1832.3,727.9 1840.7,736.3C1855.9,751.3 1855.9,751.3 1858.4,759.5C1859.8,764.0 1862.3,769.4 1863.9,771.7C1870.6,781.0 1870.5,780.5 1870.5,804.5C1870.5,826.5 1870.5,826.5 1867.4,832.5C1865.6,835.8 1863.5,841.9 1862.6,846.0C1859.5,859.6 1858.9,861.4 1855.0,867.5C1852.9,870.8 1849.7,876.6 1848.0,880.5C1846.3,884.3 1843.1,889.8 1840.9,892.6C1838.7,895.5 1835.8,900.2 1834.4,903.1C1832.9,906.1 1828.6,911.8 1824.6,915.9C1811.9,929.0 1789.7,950.6 1783.1,956.1C1758.3,976.9 1747.4,984.9 1735.8,990.7C1730.7,993.2 1724.3,997.0 1721.4,999.1C1718.6,1001.3 1712.5,1004.4 1707.9,1006.1C1703.3,1007.8 1697.5,1010.4 1695.0,1012.0C1692.5,1013.6 1684.2,1016.9 1676.6,1019.5C1668.9,1022.0 1661.2,1025.0 1659.4,1026.1C1653.2,1029.9 1637.3,1034.1 1619.6,1036.5C1617.0,1036.9 1609.8,1039.1 1603.6,1041.5C1591.7,1046.1 1580.6,1048.3 1561.0,1050.0C1554.7,1050.5 1547.9,1051.5 1546.0,1052.0C1537.7,1054.6 1513.7,1059.3 1505.0,1060.1C1497.1,1060.8 954.3,1061.0 953.6,1060.3ZM278.0,1057.9C268.9,1057.6 249.6,1057.2 235.0,1057.1C205.9,1057.0 205.0,1056.8 201.8,1051.0C198.0,1044.0 199.8,1037.6 210.0,1021.5C215.7,1012.6 220.2,1004.3 237.0,971.9C241.7,962.7 246.7,953.7 248.1,951.9C249.5,950.0 252.8,944.9 255.4,940.5C258.1,936.2 261.7,930.8 263.5,928.5C265.3,926.3 267.8,922.5 269.0,920.0C270.2,917.5 272.9,913.5 274.9,911.0C276.9,908.5 279.7,904.7 281.0,902.5C282.3,900.3 285.3,896.2 287.7,893.4C290.1,890.5 292.7,886.2 293.6,883.8C294.4,881.3 297.0,877.0 299.4,874.2C301.8,871.5 305.0,867.0 306.5,864.3C308.0,861.7 310.9,857.5 313.0,855.0C315.0,852.5 318.3,847.9 320.3,844.8C322.3,841.7 325.4,837.4 327.3,835.3C329.2,833.2 332.4,828.0 334.4,823.6C336.3,819.3 339.5,814.1 341.4,812.0C343.3,809.9 348.6,800.6 353.1,791.3C357.7,782.1 364.3,769.8 367.8,764.0C371.4,758.2 375.1,751.7 376.1,749.5C379.9,741.0 401.7,704.5 407.5,697.0C409.9,693.9 414.1,687.3 416.8,682.4C422.0,672.9 425.4,667.1 433.4,654.5C436.1,650.1 440.2,643.1 442.4,639.0C444.6,634.9 447.8,629.5 449.6,627.0C451.3,624.5 454.0,620.0 455.5,617.1C457.0,614.1 459.9,609.3 462.0,606.6C464.1,603.8 467.2,598.6 469.0,595.1C470.7,591.6 474.1,586.7 476.5,584.1C478.9,581.5 482.5,576.2 484.5,572.3C487.4,566.6 490.5,562.9 500.4,553.2C512.0,541.9 513.5,540.8 525.1,535.0C542.5,526.4 539.2,526.7 631.0,526.6C710.2,526.5 750.4,527.3 757.2,529.1C762.8,530.5 765.0,534.0 765.0,541.4C765.0,548.2 764.7,549.0 754.6,565.7C751.4,571.1 746.5,579.3 743.7,584.0C740.9,588.7 735.8,597.1 732.3,602.6C728.8,608.2 721.9,620.8 716.9,630.6C711.9,640.5 706.0,651.0 703.7,654.0C701.4,657.0 697.6,663.3 695.2,668.0C692.8,672.7 689.8,677.9 688.5,679.5C687.3,681.1 685.1,684.8 683.7,687.5C682.4,690.2 679.1,695.2 676.6,698.4C674.0,701.7 667.8,711.1 662.7,719.3C657.7,727.5 651.4,736.7 648.8,739.6C646.2,742.6 642.0,748.9 639.4,753.7C636.7,758.6 630.5,768.6 625.5,776.0C620.5,783.4 614.1,793.8 611.3,799.0C602.2,816.1 595.9,827.4 592.1,833.5C590.0,836.8 585.0,845.3 580.9,852.3C576.8,859.4 571.2,868.5 568.5,872.6C557.4,889.2 538.6,920.1 525.1,943.9C520.6,951.8 515.2,960.3 513.1,962.9C511.0,965.4 507.2,971.4 504.7,976.2C500.3,984.5 495.6,991.7 488.3,1001.3C486.5,1003.6 482.8,1009.9 479.9,1015.3C476.1,1022.3 473.4,1026.1 470.1,1028.8C467.6,1030.8 462.9,1035.0 459.7,1038.1C451.9,1045.7 429.0,1056.6 417.8,1058.0C409.6,1059.0 303.6,1059.0 278.0,1057.9Z"/></svg>